<svg width="24" height="24" viewBox="0 0 24 24" fill="none" xmlns="http://www.w3.org/2000/svg">
<path d="M11.5 14C15.64 14 19 15.57 19 17.5V20H4V17.5C4 15.57 7.36 14 11.5 14ZM18 17.5C18 16.12 15.09 15 11.5 15C7.91 15 5 16.12 5 17.5V19H18V17.5ZM11.5 5C12.4283 5 13.3185 5.36875 13.9749 6.02513C14.6313 6.6815 15 7.57174 15 8.5C15 9.42826 14.6313 10.3185 13.9749 10.9749C13.3185 11.6313 12.4283 12 11.5 12C10.5717 12 9.6815 11.6313 9.02513 10.9749C8.36875 10.3185 8 9.42826 8 8.5C8 7.57174 8.36875 6.6815 9.02513 6.02513C9.6815 5.36875 10.5717 5 11.5 5ZM11.5 6C10.837 6 10.2011 6.26339 9.73223 6.73223C9.26339 7.20107 9 7.83696 9 8.5C9 9.16304 9.26339 9.79893 9.73223 10.2678C10.2011 10.7366 10.837 11 11.5 11C12.163 11 12.7989 10.7366 13.2678 10.2678C13.7366 9.79893 14 9.16304 14 8.5C14 7.83696 13.7366 7.20107 13.2678 6.73223C12.7989 6.26339 12.163 6 11.5 6Z" fill="#331B16"/>
</svg>
